<svg width="126" height="42" viewBox="0 0 126 42" fill="none" xmlns="http://www.w3.org/2000/svg">
<g clip-path="url(#clip0_1124_2637)">
<path d="M51.0005 25.0382C51.5366 25.1289 51.7377 25.5144 51.6036 26.1948C51.4696 26.6484 51.2015 27.1927 50.7994 27.8277C50.3547 28.4968 49.8124 29.0933 49.191 29.5967L47.1135 31.1616L44.4998 32.7945L41.3499 34.4275C40.2181 34.9185 39.0536 35.3277 37.865 35.6521C35.3183 36.4006 32.9727 36.6047 30.8952 36.1964C29.2867 35.9243 28.0134 35.1759 27.0752 33.9512C26.6168 33.3782 26.2939 32.7061 26.1313 31.9866C25.9686 31.2672 25.9706 30.5194 26.1369 29.8009C26.606 27.4195 28.1474 25.3103 30.6271 23.4053C32.861 21.727 35.363 20.5023 38.1331 19.7312C39.8755 19.2549 41.2829 19.0508 42.4222 19.1869C43.3605 19.2776 44.0753 19.6178 44.5668 20.2075C45.1476 20.8878 45.3263 21.727 45.1029 22.7249C44.7008 24.2898 43.2934 25.8546 40.8138 27.4876C40.4564 27.7597 40.1213 27.9638 39.8085 28.0999L39.2054 28.5081C37.9991 29.1885 36.3236 29.8689 34.112 30.6173C34.6482 31.1163 35.162 31.3884 35.6534 31.4338C36.1631 31.5268 36.6851 31.5268 37.1948 31.4338C37.7165 31.3305 38.2313 31.1941 38.7362 31.0255L40.7468 30.2091C41.4616 29.9369 42.1988 29.5967 42.9584 29.1885C44.7008 28.304 48.4538 22.7929 49.7942 21.7723C50.5314 21.228 49.191 25.3784 50.1963 25.1062C50.4589 25.0391 50.7306 25.0161 51.0005 25.0382ZM33.1068 27.9638L33.978 27.5556L34.7822 27.2154L38.7362 25.1062L39.2724 24.4939C39.3014 24.3365 39.3014 24.175 39.2724 24.0176C39.2529 23.8526 39.2077 23.6919 39.1384 23.5413C39.0043 23.1785 38.8033 22.9744 38.5352 22.929C38.2209 22.8954 37.9033 22.9184 37.5969 22.997C37.2269 23.0962 36.8677 23.233 36.5247 23.4053C35.7541 23.7526 35.0506 24.2364 34.4471 24.8341C33.7769 25.5144 33.4418 25.9907 33.3078 26.535L33.1068 27.9638Z" fill="white"/>
<path d="M64.136 26.0587C64.0913 27.1927 64.3817 27.7597 65.0072 27.7597C66.5486 27.6917 68.6261 25.6505 71.2398 23.2692L71.776 23.6094C72.8036 22.8836 73.6301 22.4981 74.2556 22.4527C74.8588 22.4527 75.2609 22.5207 75.4619 22.6568C75.6407 22.8836 75.7077 23.2011 75.663 23.6094C75.6183 24.6073 75.1045 25.6732 74.1216 26.8072C72.6472 28.6442 70.7037 30.3451 68.291 31.9781C65.5433 33.8151 63.1307 34.6996 61.1202 34.6996C59.7128 34.6996 58.8416 33.8831 58.5065 32.1822C58.4366 31.7543 58.3919 31.3227 58.3724 30.8894C58.2831 29.9369 58.1714 29.3926 58.0373 29.2565C57.9033 29.1658 57.6576 29.1885 57.3001 29.3246C56.8557 29.5106 56.4294 29.7383 56.0268 30.005L54.4184 31.0936L49.057 35.1078C47.9847 35.8562 47.3145 36.2645 46.9124 36.2645C46.5387 36.2618 46.1711 36.1685 45.8401 35.9923C45.5141 35.8168 45.2196 35.5868 44.9689 35.3119C44.4327 34.7223 44.1647 34.1326 44.1647 33.5429C44.2317 30.005 45.1699 26.8752 46.5773 24.0856C47.5156 22.2486 48.5878 20.9559 49.9282 20.1394C50.6222 19.7286 51.4042 19.4951 52.2068 19.459C53.6812 19.3229 54.4184 19.8673 54.3514 20.9559C54.3514 21.6362 53.8152 22.7249 53.078 24.2897L52.5419 25.3784C52.1845 26.1041 52.0057 26.535 52.0057 26.6711C52.0504 26.9886 52.1845 27.1473 52.4079 27.1473C52.6759 27.1473 53.0557 26.9432 53.5472 26.535L56.63 23.8815L58.1714 22.5888C60.0479 21.16 61.9244 20.3435 62.7956 20.2755C63.2424 20.2301 63.6668 20.4116 64.0689 20.8198C64.7391 21.5002 64.5381 22.2486 64.5381 22.7929C64.5287 23.0208 64.5063 23.248 64.471 23.4733L64.337 24.2897L64.203 25.1742C64.1639 25.4675 64.1415 25.7628 64.136 26.0587Z" fill="white"/>
<path d="M76.1321 25.3783C74.4567 26.3989 73.7195 27.3515 73.7865 28.5081C73.8535 28.9844 74.1216 29.2565 74.7248 29.2565C75.2609 29.2565 76.9363 28.5761 78.6788 27.4195L80.2202 26.3989C81.2925 25.6278 82.1861 24.9248 82.9009 24.2897L83.8392 21.3641C85.0455 17.8261 86.3635 14.8324 87.7932 12.383C89.4687 9.52544 91.5462 7.07606 93.9588 6.80391C94.8971 6.66783 95.6119 6.75855 96.1034 7.07606C97.0863 7.57501 97.5331 8.21003 97.4438 8.98113C97.3991 9.75223 97.2204 10.5687 96.9076 11.4305C96.5725 12.315 96.2374 12.7913 95.7013 13.6077C95.2104 14.4977 94.6736 15.3608 94.0929 16.1932L91.8143 19.1188L90.2729 21.2961C89.424 22.9743 88.9772 24.4031 88.9325 25.5825C88.8655 27.2834 89.4016 28.0999 90.5409 28.0318C91.2111 28.0318 92.4844 27.2154 94.3609 25.7185L96.8406 23.6094C98.0022 22.5207 99.1415 21.7496 100.259 21.2961L101.063 21.0239C101.688 21.0239 101.979 21.3414 101.934 21.9764C101.867 22.929 101.13 24.4258 99.6553 26.2628C98.6501 27.5556 96.7066 29.3246 93.8248 31.6379C90.5409 34.2233 87.9272 35.448 86.1178 35.448C84.7104 35.516 83.7051 34.9037 83.102 33.679C82.6999 32.9533 82.4095 31.8873 82.2307 30.4812L80.5553 31.7059C76.1991 34.9037 72.5802 36.2645 70.5697 36.2645C68.9612 36.2645 67.6879 35.5841 66.8167 34.2914C66.0124 33.1347 66.1465 31.9781 66.2135 30.3451C66.2805 28.5761 66.9507 27.2834 68.2911 25.7866C70.5026 23.3372 70.8377 23.4052 72.6472 22.1806C74.0546 21.2961 78.9469 19.459 79.349 19.391C79.7118 19.36 80.0771 19.4064 80.4213 19.5271C80.7751 19.6703 81.1123 19.8528 81.4265 20.0714C82.1861 20.5703 82.5435 21.0919 82.4988 21.6362C82.4988 22.0898 82.2307 22.4754 81.6946 22.7929" fill="white"/>
<path d="M95.0311 29.5286C94.7724 29.5245 94.5189 29.4543 94.2939 29.3245C94.0594 29.215 93.853 29.052 93.6908 28.8482C93.2887 28.3039 92.5515 28.6441 92.6185 27.6916C92.6855 26.671 94.8301 25.0381 95.7683 23.2011C97.3767 20.0033 100.124 18.0301 101.063 17.5539C103.207 16.5333 103.274 16.3972 104.615 16.3292C105.754 16.1931 106.558 16.4653 106.96 17.0776L107.228 17.4858C107.407 17.8487 107.608 18.0075 107.831 17.9621L108.904 17.826L111.987 17.4178L113.126 17.2817C113.394 17.2817 113.707 17.3498 114.064 17.4858C114.42 17.6445 114.739 17.8761 115.002 18.1662C115.539 18.8466 115.784 19.595 115.74 20.4115C115.673 21.296 114.533 22.6567 112.389 24.5618L110.847 25.9906C109.775 27.0112 109.172 27.6235 109.172 27.8957C109.172 28.1225 109.284 28.3266 109.507 28.508C109.734 28.6945 110.019 28.7912 110.311 28.7802C110.624 28.7802 110.981 28.7122 111.383 28.5761L112.858 27.8277L114.868 26.671L119.225 23.8814L121.235 22.5887C122.642 21.7042 123.581 21.2279 124.184 21.1599C124.765 21.1145 125.211 21.2053 125.524 21.4321C125.882 21.6135 126.038 21.9764 125.993 22.5207C125.949 23.065 125.569 23.8134 124.854 24.7659C124.2 25.656 123.459 26.4767 122.642 27.2153L120.431 29.0523C119.716 29.642 118.889 30.2544 117.951 30.8894C117.058 31.5698 116.052 32.2275 114.935 32.8625C113.834 33.5241 112.692 34.1149 111.517 34.6315C108.904 35.7881 106.558 36.3324 104.481 36.3324C101.532 36.3324 99.8564 35.6521 99.3203 34.2232C99.1413 33.7465 99.0725 33.2344 99.1192 32.7264C99.1867 32.1379 99.345 31.5639 99.5883 31.0255C99.8469 30.3644 100.161 29.727 100.527 29.1204C101.282 27.9013 102.182 26.7815 103.207 25.7865C104.079 24.902 104.548 24.4257 104.548 24.2216C104.548 23.9948 104.414 23.8361 104.146 23.7454H102.872C102.604 23.7454 102.068 24.0856 101.197 24.834L99.1862 26.671C96.9746 28.5761 95.6343 29.4606 95.0311 29.5286ZM30.225 41.9796H5.22738C3.85253 41.9797 2.53298 41.4299 1.55456 40.4494C0.576138 39.4688 0.0176263 38.1363 0 36.7407V11.3624C0 9.9549 0.550741 8.60505 1.53106 7.6098C2.51139 6.61455 3.84099 6.05542 5.22738 6.05542L33.978 6.32757L30.7611 9.45733H5.22738C4.7297 9.45733 4.25241 9.65804 3.9005 10.0153C3.54859 10.3726 3.35089 10.8571 3.35089 11.3624V36.7407C3.36825 37.234 3.5736 37.7013 3.92364 38.044C4.27369 38.3867 4.7411 38.578 5.22738 38.5777H30.225C30.584 38.5679 30.9327 38.4537 31.2297 38.2487C31.5267 38.0436 31.7595 37.7564 31.9004 37.421L32.0345 37.2169C32.0345 37.2169 32.7717 37.421 33.4418 37.353C33.4865 37.3507 33.5312 37.3507 33.5759 37.353H33.7769C34.3185 37.3411 34.8575 37.2727 35.3854 37.1489L35.3183 37.6252C35.1003 38.8389 34.4725 39.9375 33.5429 40.7322C32.6134 41.5269 31.4402 41.968 30.225 41.9796Z" fill="white"/>
<path d="M35.3854 19.5269L34.3801 20.0031L33.2408 20.6155L32.0345 21.2278V19.731L33.3078 18.0981L34.1791 17.1455L35.3854 15.6487V19.5269Z" fill="white"/>
<path d="M6.29967 26.1948C7.43003 26.8141 8.52629 27.4955 9.58354 28.236L10.3207 28.8483C10.7899 29.1885 9.91862 28.5081 10.2537 28.7803L10.5888 29.0524C11.1249 29.4607 11.6387 29.9142 12.1302 30.4132C12.577 30.8214 13.0014 31.275 13.4035 31.774C13.6269 31.9554 13.828 32.1822 14.0067 32.4543L14.4088 32.8626C14.4758 32.9986 14.7439 33.4069 14.3418 32.7945L15.4141 34.3594C15.7366 34.9088 16.0275 35.4767 16.2853 36.0604C16.6204 36.8768 17.6257 37.3531 18.4969 37.3531C19.3011 37.3531 20.3734 36.8768 20.7085 36.0604C22.0488 32.8626 23.5902 29.6648 25.4667 26.7391L28.6836 22.2486L29.4208 21.2961C29.5548 21.0239 29.0187 21.7043 29.2197 21.5002L29.4208 21.2961L29.7559 20.8198L31.0292 19.1869C33.3748 16.2612 35.8545 13.4036 38.6022 10.8182L40.5457 9.18526L41.0148 8.77703C41.0148 8.84507 40.4787 9.18526 40.8138 8.98114L41.0819 8.77703L42.0871 8.02861C43.4275 7.07608 44.7008 6.19158 46.3763 5.57923L45.7731 5.85139L46.5773 5.5112C47.1805 5.23904 47.7836 4.6267 48.1187 4.15043C48.4538 3.60613 48.4538 2.92574 48.3868 2.3134C48.2528 1.15675 47.3815 -0.748321 44.8349 0.340291C41.752 1.70106 39.2054 3.60613 36.5917 5.78335C34.5372 7.47119 32.6106 9.31341 30.8281 11.2944L28.0804 14.6283C26.0029 17.2138 23.9923 19.8673 22.1158 22.5888C19.7564 25.9472 17.7991 29.5787 16.2853 33.4069H20.7085C19.5692 30.8895 17.7597 28.5762 15.7492 26.6711C13.6716 24.766 11.393 23.0651 8.91336 21.6363C7.70704 21.0239 6.0316 21.3641 5.36142 22.5888C4.75826 23.8135 5.02633 25.4464 6.29967 26.1948Z" fill="white"/>
</g>
<defs>
<clipPath id="clip0_1124_2637">
<rect width="126" height="42" fill="white"/>
</clipPath>
</defs>
</svg>
